<svg xmlns="http://www.w3.org/2000/svg" width="32" height="32" viewBox="0 0 32 32"><rect width="5.5" height="5.5" x="21.5" y="17.5" ry="0" style="fill:#8c684c;stroke:#000"/><path d="M7.5 3.5V5L11 6.5h12.5l2 2V18h3V6.5l-3.5-3Z" style="fill:#ffdc00;stroke:#000"/><path d="m3.5 22.5 5 3H12l-3-6H3.5Z" style="fill:#009a08;fill-rule:evenodd;stroke:#000"/><path d="m25.5 15.5-5 7h-8v-5h-4V20l3 6.5h13.722l3.278-1.75V15.5Z" style="fill:#009a08;fill-rule:evenodd;stroke:#000"/><path fill="red" d="M27.5 15.5h2v4h-2z" style="fill-rule:evenodd;stroke:#000"/><path d="M10.5 6.5h2v11h-4v-1z" style="fill:#a8ecff;stroke:#000"/><rect width="3" height="5" x="15.5" y="17.5" ry="0" style="fill:#8c684c;stroke:#000"/><path d="M18.5 22.5v-16" style="fill:#8c684c;stroke:#000"/><path d="M3.5 19v-4.5h1l2 1.5v1z" style="fill:#009a08;stroke:#000"/><path fill="#666" d="m2.5 23 2-1.5H6L8.5 23v2.5l-1.5 2H4.5l-2-1.5Z" style="fill-rule:evenodd;stroke:#000"/><path fill="#c3c3c3" d="M4.5 23.5h2v2h-2z" style="fill-rule:evenodd;stroke:#000"/><path fill="#666" d="m23.5 23 2-1.5H27l2.5 1.5v2.5l-1.5 2h-2.5l-2-1.5z" style="fill-rule:evenodd;stroke:#000"/><path fill="#c3c3c3" d="M25.5 23.5h2v2h-2z" style="fill-rule:evenodd;stroke:#000"/></svg>