<svg xmlns="http://www.w3.org/2000/svg" width="32" height="32" viewBox="0 0 32 32"><path fill="#666" fill-rule="evenodd" d="M6.5 14.5h5l2 1h6V22h-13zm2 0v-2l-2-3v-2h6v2l-2 3v2z" style="stroke:#000"/><path fill="#ff6c6c" fill-rule="evenodd" d="M29.5 10.5v2l-2 1V22l-8 .5v-12zm-4 3h-4v5h4zM7.5 22H7l-4.5 6.5v1H7l2-3z" style="stroke:#000"/><path fill="#666" fill-rule="evenodd" d="m7.5 21.5 1.5 6h18.5v-6z" style="stroke:#000"/><path fill="#ffdc00" fill-rule="evenodd" d="M15.5 15.5h2v6h-2zm-4 0h2v6h-2z" style="stroke:#000"/><path stroke-linecap="square" d="M7 9.5h5" style="fill:none;fill-rule:evenodd;stroke:#000"/><path fill="#ff6c6c" d="M22.5 25.5v2l2 2H27l1.5-2V26L27 23.5h-3zm-14 2v1l1 1h1l1-1v-1l-1-1H9Zm4 0v1l1 1h1l1-1v-1l-1-1h-1zm4-1v2l1 1h3l1.5-2V26l-1.5-2.5H17Z" style="fill-rule:evenodd;stroke:#000"/><path fill="#ffdc00" d="M16 25.5h9.5v2H16Z" style="fill-rule:evenodd;stroke:#000"/><path fill="#666" d="M14.5 21.5h3v6h-3z" style="fill-rule:evenodd;stroke:#000"/><path fill="#c3c3c3" d="M8.5 7.5v-3l1.5-1h6l3-1h1.5l1 1h2l1 2v2l-1 1h-4l-1-2h-4l-1-1h-2l-1.5 2z" style="fill-rule:evenodd;stroke:#000"/><path fill="#666" d="M6.5 16.5h-1l-1 1v1l1 1h1z" style="fill-rule:evenodd;stroke:#000"/><path fill="#ffdc00" fill-rule="evenodd" d="M13.5 15.5h2v6h-2z" style="stroke:#000;fill:#009a08"/><path fill="#ffdc00" fill-rule="evenodd" d="M17.5 15.5h2v6h-2z" style="fill:#009a08;stroke:#000"/><path d="M20 11h9v1h-9z" style="fill:#900;stroke:none"/><path d="M15 22h1v5h-1zm-8-7h4v2H7z" style="fill:#838383;stroke:none"/></svg>