<svg xmlns="http://www.w3.org/2000/svg" width="32" height="32" viewBox="0 0 32 32"><path d="M13.5 15 12 18.5l-2 1H8.5V18l2-1 1-2zm8 .5 1 3-.5 2h-1.5v-2l-1-3z" style="fill:#bf8f68;stroke:#000"/><path d="M18.5 10.5h-5l-1 1-2 4.5 3 .5v-3 5h5z" style="fill:#00d0be;stroke:#000"/><path d="M18.5 18.5h-5l-2 5v4h3V25l1-2.5-.5-2 1 4 4 3.5 2-1.5V26l-3-3z" style="fill:#056f66;stroke:#000"/><path d="M18.5 4.5h-5l-1 4h1v2h5z" style="fill:#bf8f68;stroke:#000"/><path d="M15 6h1v1h-1z" style="fill:#000"/><path d="m10.5 28.5 1.5-1h2.5v2h-4zm8.5 0 2-1 1-1 1 1.5-1.5 1.5H19Z" style="fill:#666;stroke:#000"/><path d="m17.5 13.5 2 3.5 2-2-2.5-4.5h-1.5" style="fill:#00d0be;stroke:#000"/><path d="M13.5 2.5v2h4v4h3V7l-2-4.5z" style="fill:#936645;stroke:#000"/></svg>