<svg xmlns="http://www.w3.org/2000/svg" width="32" height="32" viewBox="0 0 32 32"><path fill="#62ff6a" d="m14.5 29-5-2-4-7.5v-1h2l8 9.5v1z" style="fill-rule:evenodd;stroke:#000"/><path fill="#f00064" d="m10.5 8 2-3.5 1 .5L15 3.5 20 7l-2.5 11.5L11 16Z" style="fill-rule:evenodd;stroke:#000"/><path fill="#62ff6a" d="M16.5 30V18.5h-2V30" style="fill-rule:evenodd;stroke:#000"/><path fill="#ff5ca0" d="m8 5.5 1.572 4.74L9.5 14.5l3.5 5h5.5l3-6v-9h-1l-1-1-2 5v6H17l-3-5-4.5-4z" style="fill-rule:evenodd;stroke:#000"/><path fill="#62ff6a" d="m19 29.5 3-1.5 4.5-6.5V20l-5 2.5-5 6v1z" style="fill-rule:evenodd;stroke:#000"/></svg>